<svg xmlns="http://www.w3.org/2000/svg" viewBox="0 0 256 256" width="256" height="256">
  <defs>
    <linearGradient id="bg" x1="0%" y1="0%" x2="100%" y2="100%">
      <stop offset="0%" style="stop-color:#6D4AFF"/>
      <stop offset="100%" style="stop-color:#936DFF"/>
    </linearGradient>
    <linearGradient id="shield" x1="0%" y1="0%" x2="0%" y2="100%">
      <stop offset="0%" style="stop-color:#FFFFFF;stop-opacity:1"/>
      <stop offset="100%" style="stop-color:#E8E0FF;stop-opacity:1"/>
    </linearGradient>
  </defs>
  <!-- Rounded square background -->
  <rect x="4" y="4" width="248" height="248" rx="48" ry="48" fill="url(#bg)"/>
  <!-- Shield shape -->
  <path d="M128 46
           C128 46, 178 58, 206 64
           C206 64, 210 66, 210 70
           C210 70, 212 140, 186 178
           C160 216, 128 226, 128 226
           C128 226, 96 216, 70 178
           C44 140, 46 70, 46 70
           C46 66, 50 64, 50 64
           C78 58, 128 46, 128 46Z"
        fill="url(#shield)"
        stroke="none"/>
  <!-- Key icon inside shield -->
  <circle cx="128" cy="118" r="22" fill="none" stroke="#6D4AFF" stroke-width="8"/>
  <line x1="128" y1="140" x2="128" y2="186" stroke="#6D4AFF" stroke-width="8" stroke-linecap="round"/>
  <line x1="128" y1="168" x2="146" y2="168" stroke="#6D4AFF" stroke-width="8" stroke-linecap="round"/>
  <line x1="128" y1="180" x2="142" y2="180" stroke="#6D4AFF" stroke-width="8" stroke-linecap="round"/>
</svg>
